<svg xmlns="http://www.w3.org/2000/svg" style="position:absolute; width: 0; height: 0"><symbol viewBox="0 0 346.078 346.078" id="icon-list"><path d="M119.337 0H226.74v107.404H119.338zm0 119.337H226.74V226.74H119.338zM0 0h107.404v107.404H0zm0 119.337h107.404V226.74H0zm0 119.338h107.404V346.08H0zm119.337 0H226.74V346.08H119.338zm119.338 0H346.08V346.08H238.674zm0-119.338H346.08V226.74H238.674zm0-119.337H346.08v107.404H238.674z" fill="#FFF"></path></symbol><symbol viewBox="0 0 346.078 346.078" id="icon-list2"><path d="M119.337 0H226.74v107.404H119.338zm0 119.337H226.74V226.74H119.338zM0 0h107.404v107.404H0zm0 119.337h107.404V226.74H0zm0 119.338h107.404V346.08H0zm119.337 0H226.74V346.08H119.338zm119.338 0H346.08V346.08H238.674zm0-119.338H346.08V226.74H238.674zm0-119.337H346.08v107.404H238.674z" fill="#FFF"></path></symbol></svg>